<svg xmlns="http://www.w3.org/2000/svg" viewBox="0 0 954.08 282.72"><defs><style>.cls-1{fill:#102c52;}.cls-2{fill:#007a8e;}.cls-3{fill:#0fa79d;}</style></defs><title>swimmirror-logo</title><g id="Layer_2" data-name="Layer 2"><g id="Layer_1-2" data-name="Layer 1"><path class="cls-1" d="M3.27,203.49A25.65,25.65,0,0,1,12,194.72a41.2,41.2,0,0,1,12.13-4.91,59.46,59.46,0,0,1,13.51-1.55,71.94,71.94,0,0,1,14.11,1.38,57.36,57.36,0,0,1,12.39,3.87,25.3,25.3,0,0,1,8.69,6.1A11.53,11.53,0,0,1,76,207.36a11.31,11.31,0,0,1-2.84,7.83,9.72,9.72,0,0,1-7.65,3.18,9.36,9.36,0,0,1-4.82-1.12,33.77,33.77,0,0,1-4.82-3.7,32.11,32.11,0,0,0-7.05-5,21,21,0,0,0-9.29-1.72q-6.89,0-10.67,1.9a6.18,6.18,0,0,0-3.79,5.84,5.94,5.94,0,0,0,3.18,5.68,41.58,41.58,0,0,0,10.23,3.27L49,225.94a118.2,118.2,0,0,1,11.7,3.36,40.11,40.11,0,0,1,9.64,4.9,24.53,24.53,0,0,1,7.22,7.74,20.85,20.85,0,0,1,2.75,10.84,25.77,25.77,0,0,1-3.27,13.08,28.75,28.75,0,0,1-8.77,9.46,39.12,39.12,0,0,1-12.48,5.59,56.18,56.18,0,0,1-14.19,1.81,72.19,72.19,0,0,1-16-1.71,50.56,50.56,0,0,1-13.34-4.9,30.13,30.13,0,0,1-9-7.23A13.58,13.58,0,0,1,0,260.18a11.11,11.11,0,0,1,2.58-7.48c1.72-2,4.24-3,7.57-3a9.54,9.54,0,0,1,5.33,1.46,36.77,36.77,0,0,1,5.5,4.73,39.62,39.62,0,0,0,8.43,6.88q4.13,2.4,11.18,2.41c4.36,0,7.88-.86,10.59-2.58s4-3.9,4-6.54-1-4.7-2.92-5.84-5.34-2.29-10.15-3.44l-1.37-.34L26,242.81q-12.56-3.1-19.26-8.95T0,216.31a24.37,24.37,0,0,1,3.27-12.82"/><path class="cls-1" d="M247.37,200.83a13.85,13.85,0,0,1,2.84-9.12q2.84-3.44,9.72-3.44t9.73,3.44a13.9,13.9,0,0,1,2.83,9.12v69.33a13.91,13.91,0,0,1-2.83,9.12q-2.85,3.44-9.73,3.44t-9.72-3.44a13.86,13.86,0,0,1-2.84-9.12Zm3.27-43.35a13.28,13.28,0,1,1-3.79,9.29,12.65,12.65,0,0,1,3.79-9.29"/><path class="cls-2" d="M605.35,200.83a13.85,13.85,0,0,1,2.84-9.12q2.84-3.44,9.72-3.44t9.73,3.44a13.9,13.9,0,0,1,2.83,9.12v69.33a13.91,13.91,0,0,1-2.83,9.12q-2.85,3.44-9.73,3.44t-9.72-3.44a13.86,13.86,0,0,1-2.84-9.12Zm3.27-43.35a13.28,13.28,0,1,1-3.79,9.29,12.65,12.65,0,0,1,3.79-9.29"/><path class="cls-2" d="M653.18,200q0-5.5,3.18-8.6a12.31,12.31,0,0,1,16.34,0q3.18,3.1,3.18,8.6v9.64h.35a41.53,41.53,0,0,1,7.48-15.32q4.91-6,13.34-6a14.34,14.34,0,0,1,9.89,3.44,11.22,11.22,0,0,1,3.87,8.77q0,6.54-3.53,9.55a13.16,13.16,0,0,1-8.86,3H694q-7.91,0-11.79,6.37t-3.87,21.51v29.24a13.87,13.87,0,0,1-2.84,9.12q-2.84,3.45-9.72,3.44T656,279.28a13.85,13.85,0,0,1-2.84-9.12Z"/><path class="cls-2" d="M723.21,200q0-5.5,3.18-8.6a12.31,12.31,0,0,1,16.34,0q3.18,3.1,3.18,8.6v9.64h.35a41.53,41.53,0,0,1,7.48-15.32q4.91-6,13.34-6a14.34,14.34,0,0,1,9.89,3.44,11.22,11.22,0,0,1,3.87,8.77q0,6.54-3.53,9.55a13.16,13.16,0,0,1-8.86,3H764q-7.91,0-11.79,6.37t-3.87,21.51v29.24a13.87,13.87,0,0,1-2.84,9.12q-2.84,3.45-9.72,3.44T726,279.28a13.85,13.85,0,0,1-2.84-9.12Z"/><path class="cls-2" d="M816.45,256q5.32,8.17,16,8.17t16-8.17q5.33-8.17,5.34-20.56,0-12.9-5.42-20.73t-15.92-7.83q-10.49,0-15.91,7.83t-5.42,20.73q0,12.39,5.34,20.56M789,216.74a42.73,42.73,0,0,1,8.86-14.88q12.56-13.59,34.58-13.59T867,201.86a42.9,42.9,0,0,1,8.86,14.88,55.73,55.73,0,0,1,3,18.66,62.72,62.72,0,0,1-2.58,18.32,42,42,0,0,1-8,15,37.2,37.2,0,0,1-14.45,10.23q-9,3.78-21.42,3.78T811.12,279a37,37,0,0,1-14.46-10.23,42.06,42.06,0,0,1-8.08-15.06A63.06,63.06,0,0,1,786,235.41a55.6,55.6,0,0,1,3-18.66"/><path class="cls-2" d="M896.45,200q0-5.5,3.18-8.6a12.31,12.31,0,0,1,16.34,0q3.18,3.1,3.18,8.6v9.64h.35A41.53,41.53,0,0,1,927,194.29q4.91-6,13.34-6a14.34,14.34,0,0,1,9.89,3.44,11.22,11.22,0,0,1,3.87,8.77q0,6.54-3.53,9.55a13.17,13.17,0,0,1-8.86,3h-4.48q-7.91,0-11.79,6.37t-3.87,21.51v29.24a13.87,13.87,0,0,1-2.84,9.12q-2.85,3.45-9.72,3.44t-9.72-3.44a13.85,13.85,0,0,1-2.84-9.12Z"/><path class="cls-1" d="M163.7,257.63s-1.75,25.47-33,25.09c-42.13,0-38.31-30.45-38.31-30.45V200.82q0-5.68,2.84-9.12t9.72-3.44q6.89,0,9.73,3.44t2.83,9.12v45.07q0,7.23,3.36,11.7c2.24,3,5.71,4.48,10.41,4.48a17.51,17.51,0,0,0,12.82-5.43q5.42-5.42,5.42-14V200.82a13.93,13.93,0,0,1,2.73-8.95l0-.17q2.84-3.44,9.73-3.44h.13q6.89,0,9.72,3.44a13.88,13.88,0,0,1,2.84,9.12v44.29a18.31,18.31,0,0,0,5.29,11.53,17.51,17.51,0,0,0,12.82,5.43c4.7,0,8.17-1.5,10.41-4.48s3.35-6.88,3.35-11.7V200.82a13.88,13.88,0,0,1,2.84-9.12c1.9-2.29,5.13-3.44,9.72-3.44s7.83,1.14,9.72,3.44a13.86,13.86,0,0,1,2.84,9.12v51.44s4.32,30.46-37.62,30.46c-27.36,0-30.28-25.09-30.28-25.09"/><path class="cls-2" d="M512.66,203.4s1.75-15.51,33-15.13c42.13,0,38.31,30.45,38.31,30.45v51.44q0,5.68-2.84,9.12t-9.72,3.44q-6.89,0-9.73-3.44t-2.83-9.12V225.09c0-4.82-1.12-8.71-3.36-11.7s-5.71-4.47-10.41-4.47a17.51,17.51,0,0,0-12.82,5.42q-5.42,5.42-5.42,14v41.81a13.93,13.93,0,0,1-2.73,8.95l0,.17q-2.84,3.45-9.73,3.44h-.13q-6.89,0-9.72-3.44a13.87,13.87,0,0,1-2.84-9.12V225.87a18.33,18.33,0,0,0-5.29-11.54,17.5,17.5,0,0,0-12.82-5.42q-7,0-10.41,4.47c-2.23,3-3.35,6.88-3.35,11.7v45.07a13.87,13.87,0,0,1-2.84,9.12c-1.9,2.3-5.13,3.44-9.72,3.44s-7.83-1.14-9.72-3.44a13.85,13.85,0,0,1-2.84-9.12V218.72s-4.32-30.46,37.62-30.46c27.36,0,30.28,15.13,30.28,15.13"/><path class="cls-1" d="M361.8,203.4s1.75-15.51,33-15.13c42.13,0,38.31,30.45,38.31,30.45v51.44q0,5.68-2.84,9.12t-9.72,3.44q-6.89,0-9.73-3.44T408,270.16V225.09c0-4.82-1.12-8.71-3.36-11.7s-5.71-4.47-10.41-4.47a17.51,17.51,0,0,0-12.82,5.42q-5.42,5.42-5.42,14v41.81a13.93,13.93,0,0,1-2.73,8.95l0,.17q-2.84,3.45-9.73,3.44h-.13q-6.89,0-9.72-3.44a13.87,13.87,0,0,1-2.84-9.12V225.88a18.33,18.33,0,0,0-5.29-11.54,17.5,17.5,0,0,0-12.82-5.42q-7,0-10.41,4.47c-2.23,3-3.35,6.88-3.35,11.7v45.07a13.87,13.87,0,0,1-2.84,9.12c-1.9,2.3-5.13,3.44-9.72,3.44s-7.83-1.14-9.72-3.44a13.85,13.85,0,0,1-2.84-9.12V218.72s-4.32-30.46,37.62-30.46c27.36,0,30.28,15.13,30.28,15.13"/><path class="cls-3" d="M664.29,42.23c0,22.2-17.33,40.05-38.89,40.05s-38.85-17.85-38.85-40.05S603.95,2.16,625.4,2.16s38.89,18,38.89,40.08"/><path class="cls-3" d="M510,0,398,43.12,392.9,62.87,496.27,38.19l15.1,20.26L404.21,113.69c9.63,33.58,41.09,28.68,55.69,8.29,13.85,23.36,39.3,17.9,51.9-1.54,9.43,18.48,36.46,28.72,52.44.52,16,28.25,39.64,15.51,50.82,2.39Z"/><path class="cls-3" d="M673.33,102s-8.16,36.22-46.56,18.51c15.46,26.9,46.56,7.4,46.56,7.4,13.85,10.31,36.29,9.74,46.36-8.06-19.42-1.88-34.08-2.7-46.36-17.84"/></g></g></svg>